<svg width="64" height="64" viewBox="0 0 64 64" fill="none" xmlns="http://www.w3.org/2000/svg">
<path fill-rule="evenodd" clip-rule="evenodd" d="M32.0002 9C18.747 9 8 19.745 8 33.0002C8 43.6041 14.8768 52.6004 24.4128 55.7739C25.6123 55.9961 26.0526 55.2533 26.0526 54.6194C26.0526 54.0471 26.0304 52.1565 26.02 50.151C19.3431 51.6029 17.9342 47.3193 17.9342 47.3193C16.8425 44.5452 15.2695 43.8076 15.2695 43.8076C13.0919 42.318 15.4336 42.3486 15.4336 42.3486C17.8436 42.5175 19.1126 44.8222 19.1126 44.8222C21.2532 48.4909 24.7272 47.4302 26.0967 46.817C26.3121 45.2658 26.9341 44.2066 27.6205 43.6077C22.2897 43.0008 16.6859 40.9429 16.6859 31.7467C16.6859 29.1264 17.6234 26.9854 19.1587 25.3047C18.9095 24.6998 18.0881 22.2592 19.3912 18.9533C19.3912 18.9533 21.4066 18.3083 25.993 21.4134C27.9074 20.8817 29.9606 20.615 32.0002 20.6058C34.0398 20.615 36.0946 20.8817 38.0126 21.4134C42.5934 18.3083 44.606 18.9533 44.606 18.9533C45.9124 22.2592 45.0905 24.6998 44.8413 25.3047C46.3801 26.9854 47.3113 29.1264 47.3113 31.7467C47.3113 40.9648 41.6968 42.9944 36.3525 43.5886C37.2133 44.3334 37.9804 45.794 37.9804 48.0331C37.9804 51.2444 37.9526 53.8289 37.9526 54.6194C37.9526 55.258 38.3846 56.0064 39.6011 55.7707C49.132 52.5936 56 43.6005 56 33.0002C56 19.745 45.2546 9 32.0002 9Z" fill="#1B1817"/>
<path d="M17.0901 43.459C17.0372 43.5787 16.8496 43.6141 16.6788 43.5322C16.5047 43.4539 16.4069 43.2913 16.4633 43.1717C16.515 43.0493 16.703 43.0151 16.8767 43.0966C17.0511 43.1753 17.1505 43.3394 17.0901 43.459Z" fill="#1B1817"/>
<path d="M18.0622 44.5432C17.9477 44.6494 17.724 44.6001 17.5722 44.4324C17.4152 44.265 17.3858 44.0413 17.5018 43.9336C17.6199 43.8279 17.8369 43.8775 17.9942 44.0445C18.1512 44.2138 18.1818 44.4359 18.0622 44.5432Z" fill="#1B1817"/>
<path d="M19.0085 45.9255C18.8615 46.0276 18.621 45.9319 18.4724 45.7184C18.3253 45.505 18.3253 45.2491 18.4755 45.1465C18.6246 45.044 18.8615 45.1366 19.0121 45.348C19.1587 45.565 19.1587 45.821 19.0085 45.9255" fill="#1B1817"/>
<path d="M20.3049 47.2609C20.1734 47.4059 19.8932 47.367 19.6881 47.1691C19.4783 46.9755 19.4198 46.7009 19.5518 46.5558C19.6849 46.4104 19.9667 46.4513 20.1734 46.6476C20.3816 46.8408 20.4452 47.1174 20.3049 47.2609Z" fill="#1B1817"/>
<path d="M22.0934 48.0363C22.0354 48.2243 21.7655 48.3097 21.4936 48.2298C21.2222 48.1476 21.0446 47.9274 21.0994 47.7374C21.1558 47.5482 21.4269 47.4592 21.7007 47.5447C21.9718 47.6265 22.1498 47.8451 22.0934 48.0363Z" fill="#1B1817"/>
<path d="M24.0575 48.1802C24.0642 48.3781 23.8337 48.5422 23.5484 48.5458C23.2614 48.5521 23.0293 48.392 23.0261 48.1972C23.0261 47.9973 23.2515 47.8348 23.5384 47.83C23.8238 47.8244 24.0575 47.9834 24.0575 48.1802Z" fill="#1B1817"/>
<path d="M25.8853 47.869C25.9195 48.0621 25.7211 48.2604 25.4378 48.3133C25.1592 48.3642 24.9012 48.2449 24.8659 48.0534C24.8313 47.8555 25.0332 47.6571 25.3114 47.6059C25.5952 47.5566 25.8491 47.6726 25.8853 47.869" fill="#1B1817"/>
</svg>